<svg id="Capa_1" enable-background="new 0 0 497 497" height="512" viewBox="0 0 497 497" width="512" xmlns="http://www.w3.org/2000/svg"><g><path d="m92.5 88.167h312v287.533h-312z" fill="#394d5c"/><path d="m433.017 497h-369.034c-3.314 0-6-2.686-6-6v-37h381.033v37c.001 3.314-2.686 6-5.999 6z" fill="#d0e2ed"/><path d="m416.016 454v37c0 3.314-2.686 6-6 6h23c3.314 0 6-2.686 6-6v-37z" fill="#aabfcf"/><path d="m397.6 88.167h33.133v287.533h-33.133z" fill="#d0e2ed"/><path d="m397.05 88.717h34.233v33.133h-34.233z" fill="#aabfcf" transform="matrix(0 1 -1 0 519.45 -308.883)"/><path d="m66.267 88.167h33.133v287.533h-33.133z" fill="#d0e2ed"/><path d="m65.717 88.717h34.233v33.133h-34.233z" fill="#aabfcf" transform="matrix(0 1 -1 0 188.117 22.45)"/><path d="m313.844 148.731-39.421-15.769c-.709-.284-1.465-.429-2.228-.429h-47.389c-.763 0-1.52.146-2.228.429l-39.422 15.769c-.611.244-1.177.587-1.676 1.015l-53.193 45.594c-2.304 1.975-2.771 5.359-1.088 7.884l26.856 40.284c1.838 2.757 5.563 3.502 8.32 1.664l10.53-7.02c3.987-2.658 9.328.2 9.328 4.992v79.906c0 4.575 3.709 8.283 8.283 8.283h115.967c4.575 0 8.283-3.708 8.283-8.283v-79.906c0-4.792 5.341-7.65 9.328-4.992l10.53 7.02c2.757 1.838 6.482 1.093 8.32-1.664l26.856-40.284c1.683-2.525 1.216-5.909-1.088-7.884l-53.192-45.594c-.499-.428-1.065-.771-1.676-1.015z" fill="#118df0"/><g><path d="m347.9 140.033h-198.8c-4.143 0-7.5-3.358-7.5-7.5s3.357-7.5 7.5-7.5h198.8c4.143 0 7.5 3.358 7.5 7.5s-3.357 7.5-7.5 7.5z" fill="#d0e2ed"/></g><path d="m447.3 6v85.117c0 4.575-3.709 8.283-8.283 8.283h-381.034c-4.575 0-8.283-3.709-8.283-8.283v-85.117c0-3.314 2.686-6 6-6h385.6c3.314 0 6 2.686 6 6z" fill="#887575"/><path d="m408.167 66.267h-319.334c-3.314 0-6-2.686-6-6v-21.134c0-3.314 2.686-6 6-6h319.333c3.314 0 6 2.686 6 6v21.133c.001 3.314-2.686 6.001-5.999 6.001z" fill="#fafafa"/><path d="m441.3 0h-23c3.314 0 6 2.686 6 6v85.117c0 4.575-3.708 8.283-8.283 8.283h23c4.575 0 8.283-3.709 8.283-8.283v-85.117c0-3.314-2.686-6-6-6z" fill="#806666"/><path d="m237-38.2h23v298.2h-23z" fill="#2c4252" transform="matrix(0 1 -1 0 359.4 -137.6)"/><path d="m408.167 33.133h-23c3.314 0 6 2.686 6 6v21.133c0 3.314-2.686 6-6 6h23c3.314 0 6-2.686 6-6v-21.133c0-3.313-2.687-6-6-6z" fill="#f0e9e9"/><path d="m447.3 455.584c0 4.575-3.709 8.283-8.283 8.283h-381.034c-4.575 0-8.283-3.709-8.283-8.283v-82.834c0-4.575 3.709-8.283 8.283-8.283h381.034c4.575 0 8.283 3.708 8.283 8.283z" fill="#887575"/><path d="m408.167 430.733h-319.334c-3.314 0-6-2.686-6-6v-21.133c0-3.314 2.686-6 6-6h319.333c3.314 0 6 2.686 6 6v21.133c.001 3.314-2.686 6-5.999 6z" fill="#394d5c"/><path d="m241 397.6h15v33.133h-15z" fill="#d0e2ed"/><path d="m439.017 364.467h-23c4.575 0 8.283 3.708 8.283 8.283v82.834c0 4.575-3.709 8.283-8.283 8.283h23c4.575 0 8.283-3.709 8.283-8.283v-82.834c0-4.575-3.708-8.283-8.283-8.283z" fill="#806666"/><path d="m408.167 397.6h-23.001c3.314 0 6 2.686 6 6v21.133c0 3.314-2.686 6-6 6h23.001c3.314 0 6-2.686 6-6v-21.133c0-3.314-2.687-6-6-6z" fill="#2c4252"/><path d="m313.844 148.731-39.421-15.769c-.709-.284-1.465-.429-2.228-.429h-47.389c-.763 0-1.52.146-2.228.429l-39.422 15.769c-.611.244-1.177.587-1.676 1.015l-53.193 45.594c-2.304 1.975-2.771 5.359-1.088 7.884l26.856 40.284c1.838 2.757 5.563 3.502 8.32 1.664l10.53-7.02c3.987-2.658 9.328.2 9.328 4.992v79.906c0 4.575 3.709 8.283 8.283 8.283h115.967c4.575 0 8.283-3.708 8.283-8.283v-79.906c0-4.792 5.341-7.65 9.328-4.992l10.53 7.02c2.757 1.838 6.482 1.093 8.32-1.664l26.856-40.284c1.683-2.525 1.216-5.909-1.088-7.884l-53.192-45.594c-.499-.428-1.065-.771-1.676-1.015z" fill="#118df0"/><g fill="#1179f0"><path d="m311.716 245.172-10.53-7.02c-3.987-2.658-9.328.2-9.328 4.992v79.906c0 4.575-3.708 8.283-8.283 8.283h22.909c4.575 0 8.283-3.708 8.283-8.283v-76.883c-1.055-.048-2.109-.367-3.051-.995z"/><path d="m368.713 195.34-53.193-45.594c-.499-.428-1.066-.771-1.677-1.015l-39.421-15.769c-.709-.284-1.465-.429-2.228-.429h-22.909c.763 0 1.52.146 2.228.429l39.421 15.769c.611.244 1.177.587 1.676 1.015l53.193 45.594c2.304 1.975 2.771 5.359 1.088 7.884l-23.151 34.727c.118.068.238.125.354.202l10.53 7.02c2.757 1.838 6.482 1.093 8.32-1.664l26.856-40.284c1.684-2.526 1.217-5.91-1.087-7.885z"/></g><path d="m273.35 132.533c0 13.724-11.126 24.85-24.85 24.85s-24.85-11.126-24.85-24.85z" fill="#1179f0"/><g><path d="m223.65 272.567c-4.143 0-7.5-3.358-7.5-7.5v-58.767h-.784c-4.143 0-7.5-3.358-7.5-7.5s3.357-7.5 7.5-7.5h8.284c4.143 0 7.5 3.358 7.5 7.5v66.267c0 4.142-3.357 7.5-7.5 7.5z" fill="#d0e2ed"/></g><g><path d="m265.066 272.567c-13.271 0-24.066-10.796-24.066-24.067v-33.133c0-13.271 10.796-24.067 24.066-24.067s24.067 10.796 24.067 24.067v33.133c.001 13.271-10.796 24.067-24.067 24.067zm0-66.267c-4.999 0-9.066 4.067-9.066 9.067v33.133c0 5 4.067 9.067 9.066 9.067 5 0 9.067-4.067 9.067-9.067v-33.133c.001-5-4.067-9.067-9.067-9.067z" fill="#d0e2ed"/></g><path d="m182.233 290.7h132.533v15h-132.533z" fill="#d0e2ed"/></g></svg>