<svg id="Capa_1" enable-background="new 0 0 497 497" height="512" viewBox="0 0 497 497" width="512" xmlns="http://www.w3.org/2000/svg"><g><path d="m289.917 310.157v-53.656l-82.833-.001v53.657c0 2.718-1.827 5.097-4.454 5.797l-34.468 9.191v92.021h80.338 80.339v-92.021l-34.468-9.191c-2.627-.7-4.454-3.079-4.454-5.797z" fill="#f8c09c"/><path d="m207.083 293.524c12.187 7.053 26.324 11.109 41.417 11.109s29.23-4.057 41.417-11.109v-37.023l-82.833-.001v37.024z" fill="#f8aa8b"/><path d="m347.9 115.967c9.15 0 16.567 7.417 16.567 16.567v33.133c0 9.149-7.417 16.567-16.567 16.567h-198.8c-9.15 0-16.567-7.417-16.567-16.567v-33.133c0-9.149 7.417-16.567 16.567-16.567z" fill="#f8aa8b"/><path d="m331.333 82.833v115.967c0 45.748-37.086 82.833-82.833 82.833s-82.833-37.086-82.833-82.833v-115.967z" fill="#f8c09c"/><g><path d="m215.366 173.167c-4.143 0-7.5-3.357-7.5-7.5v-8.283c0-4.143 3.357-7.5 7.5-7.5s7.5 3.357 7.5 7.5v8.283c0 4.143-3.357 7.5-7.5 7.5z" fill="#394d5c"/></g><g><path d="m281.634 173.167c-4.143 0-7.5-3.357-7.5-7.5v-8.283c0-4.143 3.357-7.5 7.5-7.5s7.5 3.357 7.5 7.5v8.283c0 4.143-3.358 7.5-7.5 7.5z" fill="#394d5c"/></g><g><path d="m265.066 231.15h-33.133c-4.143 0-7.5-3.357-7.5-7.5s3.357-7.5 7.5-7.5h33.133c4.143 0 7.5 3.357 7.5 7.5s-3.357 7.5-7.5 7.5z" fill="#f8aa8b"/></g><path d="m328.832 332.144 19.682-1.751 74.19 19.784c14.504 3.868 24.596 17.004 24.596 32.015v106.526c0 4.575-3.709 8.283-8.283 8.283h-381.034c-4.575 0-8.283-3.709-8.283-8.283v-106.527c0-15.011 10.092-28.147 24.596-32.015l75.052-20.014 18.815 9.983v36.44l80.336 29.298 80.339-29.298z" fill="#118df0"/><path d="m298.2 33.133h-2.283c-3.314 0-6-2.686-6-6v-2.283c0-13.724-11.126-24.85-24.85-24.85h-33.133c-13.724 0-24.85 11.126-24.85 24.85v2.283c0 3.314-2.686 6-6 6h-2.284c-18.299 0-33.133 14.834-33.133 33.133v49.7h24.85c4.575 0 8.283-3.709 8.283-8.283 0-4.575 3.709-8.283 8.283-8.283h82.833c4.575 0 8.283 3.708 8.283 8.283 0 4.575 3.708 8.283 8.283 8.283h24.85v-49.7c.001-18.299-14.833-33.133-33.132-33.133z" fill="#887575"/><path d="m347.686 330.171c-3.382 51.835-46.496 92.831-99.186 92.831-52.691 0-95.806-40.997-99.186-92.833l32.92-8.795v2.228c0 36.598 29.669 66.267 66.267 66.267s66.267-29.669 66.267-66.267v-2.228z" fill="#d0e2ed"/><path d="m391.6 463.867h-37.7c-3.314 0-6-2.686-6-6v-37.7c0-3.314 2.686-6 6-6h37.7c3.314 0 6 2.686 6 6v37.7c0 3.313-2.686 6-6 6z" fill="#83e85a"/><g><path d="m82.833 454.248c-4.143 0-7.5-3.357-7.5-7.5v-7.731c0-4.143 3.357-7.5 7.5-7.5s7.5 3.357 7.5 7.5v7.731c0 4.143-3.357 7.5-7.5 7.5z" fill="#fdbe40"/></g><g><path d="m115.967 454.248c-4.143 0-7.5-3.357-7.5-7.5v-7.731c0-4.143 3.357-7.5 7.5-7.5s7.5 3.357 7.5 7.5v7.731c0 4.143-3.358 7.5-7.5 7.5z" fill="#fdbe40"/></g><g><path d="m149.1 454.248c-4.143 0-7.5-3.357-7.5-7.5v-7.731c0-4.143 3.357-7.5 7.5-7.5s7.5 3.357 7.5 7.5v7.731c0 4.143-3.358 7.5-7.5 7.5z" fill="#fdbe40"/></g><g fill="#806666"><path d="m298.2 33.133h-2.284c-2.987 0-5.458-2.186-5.917-5.044v29.894c0 4.143 3.357 7.5 7.5 7.5s7.5-3.357 7.5-7.5v-24.148c-2.194-.458-4.468-.702-6.799-.702z"/><path d="m207.063 57.983v-30.439c-.212 3.121-2.804 5.589-5.979 5.589h-2.284c-2.309 0-4.562.237-6.737.687v24.163c0 4.143 3.357 7.5 7.5 7.5s7.5-3.357 7.5-7.5z"/></g><path d="m422.704 350.177-21.467-5.725c13.676 4.358 23.063 17.087 23.063 31.563v112.702c0 4.575-3.708 8.283-8.283 8.283h23c4.575 0 8.283-3.709 8.283-8.283v-106.526c0-15.011-10.092-28.147-24.596-32.014z" fill="#1179f0"/><path d="m391.6 414.167h-23c3.314 0 6 2.686 6 6v37.7c0 3.314-2.686 6-6 6h23c3.314 0 6-2.686 6-6v-37.7c0-3.314-2.686-6-6-6z" fill="#4ae048"/></g></svg>