<?xml version="1.0" encoding="iso-8859-1"?>
<!-- Generator: Adobe Illustrator 19.0.0, SVG Export Plug-In . SVG Version: 6.00 Build 0)  -->
<svg version="1.1" id="Capa_1" xmlns="http://www.w3.org/2000/svg" xmlns:xlink="http://www.w3.org/1999/xlink" x="0px" y="0px"
	 viewBox="0 0 512.001 512.001" style="enable-background:new 0 0 512.001 512.001;" xml:space="preserve">
<path style="fill:#4CAF50;" d="M501.121,498.988c0.63,3.155-0.149,6.427-2.133,8.96c-2.028,2.527-5.08,4.014-8.32,4.053H21.334
	c-3.24-0.039-6.292-1.526-8.32-4.053c-1.984-2.533-2.763-5.805-2.133-8.96l57.387-264.32l4.693-21.333L117.547,8.321
	c1.057-4.91,5.432-8.392,10.453-8.32h256c5.022-0.072,9.397,3.41,10.453,8.32l44.587,205.013l4.693,21.333L501.121,498.988z"/>
<g>
	<path style="fill:#FAFAFA;" d="M439.041,213.334h-89.387c-18.347-70.187-60.8-85.333-93.653-85.333
		c-46.933,0-79.787,30.507-93.653,85.333H72.961l-4.693,21.333h90.88c-0.122,17.544,6.003,34.559,17.28,48
		c19.775,23.5,48.861,37.146,79.573,37.333c31.052-0.372,60.408-14.232,80.427-37.973c11.055-13.276,16.962-30.087,16.64-47.36
		h90.667L439.041,213.334z M256.001,149.334c35.627,0,58.88,21.12,71.467,64H184.321
		C196.267,171.094,220.161,149.334,256.001,149.334z M319.787,268.588c-28.985,35.199-81.015,40.236-116.214,11.252
		c-3.889-3.203-7.477-6.755-10.719-10.612c-8.038-9.705-12.35-21.96-12.16-34.56h150.827
		C331.913,247.033,327.736,259.109,319.787,268.588z"/>
	<path style="fill:#FAFAFA;" d="M375.681,512.001h-21.76l-21.333-106.667H179.414l-21.333,106.667h-21.76l23.893-119.467
		c1.014-4.967,5.384-8.534,10.453-8.533h170.667c5.07-0.001,9.439,3.566,10.453,8.533L375.681,512.001z"/>
	<path style="fill:#FAFAFA;" d="M319.787,72.961c0.635,3.056-0.238,6.232-2.347,8.533c-1.936,2.498-4.947,3.925-8.107,3.84H202.667
		c-3.16,0.085-6.171-1.342-8.107-3.84c-2.109-2.302-2.982-5.477-2.347-8.533l12.16-72.96h21.547l-10.667,64h81.493l-10.667-64
		h21.547L319.787,72.961z"/>
</g>
<g>
</g>
<g>
</g>
<g>
</g>
<g>
</g>
<g>
</g>
<g>
</g>
<g>
</g>
<g>
</g>
<g>
</g>
<g>
</g>
<g>
</g>
<g>
</g>
<g>
</g>
<g>
</g>
<g>
</g>
</svg>
